<svg width="64" height="64" viewBox="0 0 64 64" fill="none" xmlns="http://www.w3.org/2000/svg">
<mask id="mask0_4467_5758" style="mask-type:alpha" maskUnits="userSpaceOnUse" x="0" y="0" width="64" height="64">
<circle cx="32" cy="32" r="32" fill="#CBCBCB"/>
</mask>
<g mask="url(#mask0_4467_5758)">
<circle cx="32" cy="32" r="32" fill="#710000"/>
<mask id="mask1_4467_5758" style="mask-type:alpha" maskUnits="userSpaceOnUse" x="0" y="0" width="64" height="64">
<circle cx="32" cy="32" r="32" fill="#CBCBCB"/>
</mask>
<g mask="url(#mask1_4467_5758)">
<path d="M63.2685 6.09431C62.9977 5.33291 61.9808 5.17907 61.4816 5.81458C51.1611 18.9531 23.1839 39.7028 -16.4815 29.6277C-17.3246 29.4136 -18.0583 30.2884 -17.6657 31.0645L-8.05065 50.0717C-7.90289 50.3638 -7.6142 50.5664 -7.28984 50.6106C37.4359 56.7071 62.6025 36.9797 69.9258 25.9372C70.0961 25.6804 70.1248 25.3682 70.0216 25.0779L63.2685 6.09431Z" fill="#DFBA5B"/>
<path d="M15.3609 -11.9967C15.635 -12.1375 15.9554 -12.147 16.2325 -12.0121C23.2452 -8.59748 34.0533 0.54192 41.7365 16.683C41.9534 17.1388 41.7927 17.6874 41.3608 17.9488C36.2138 21.0647 30.1888 23.8311 23.3664 25.7172C22.9235 25.8396 22.4556 25.6364 22.2303 25.2359C14.8871 12.1808 4.82958 3.40466 -2.59736 -0.978866C-3.29332 -1.38963 -3.28042 -2.42071 -2.56159 -2.78997L15.3609 -11.9967Z" fill="#DFBA5B"/>
<path d="M50.2759 48.31C50.2055 47.6238 49.4734 47.2219 48.848 47.5128C43.9791 49.7779 38.4487 51.745 32.2506 53.1889C31.7509 53.3053 31.4158 53.777 31.4702 54.2872C32.0959 60.147 32.1046 66.4385 31.3207 73.1579C31.2199 74.0219 32.1861 74.6181 32.9034 74.1261L50.4704 62.0795C50.7404 61.8943 50.9029 61.5887 50.9038 61.2614C50.9163 56.7151 50.6955 52.4001 50.2759 48.31Z" fill="#DFBA5B"/>
</g>
</g>
</svg>
