<svg width="44" height="45" viewBox="0 0 44 45" fill="none" xmlns="http://www.w3.org/2000/svg">
<path fill-rule="evenodd" clip-rule="evenodd" d="M24.9151 2.87103C25.6721 2.5345 26.013 1.64803 25.6765 0.891034C25.3399 0.13404 24.4535 -0.206813 23.6965 0.129716C20.7044 1.45985 17.8222 3.00724 14.9974 4.52376C14.7234 4.67086 14.4499 4.81768 14.1769 4.96398C11.0695 6.62939 8.01451 8.23439 4.82867 9.53304C4.49515 9.66899 4.19389 9.80776 3.94421 9.95395C3.75585 10.0642 3.35563 10.3106 3.10466 10.7454C2.95206 11.0097 2.82138 11.4044 2.90749 11.868C2.99084 12.3167 3.23873 12.6196 3.42905 12.7917C3.75652 13.0878 4.1455 13.2078 4.30852 13.2557C4.71031 13.3737 5.23764 13.4467 5.65691 13.504L5.84066 13.529C6.24724 13.5841 6.63321 13.6365 6.99075 13.7047C9.14065 14.1149 11.2534 14.4671 13.3459 14.8159C15.5583 15.1848 17.7486 15.5499 19.9357 15.9757C17.8519 16.9991 15.7774 18.0112 13.6802 18.9827C12.6385 19.4653 11.5581 19.9239 10.4457 20.3929L10.1825 20.5039C9.16051 20.9345 8.11229 21.3763 7.07867 21.8425C4.83518 22.8544 2.57596 24.018 0.581213 25.564C-0.073588 26.0714 -0.193023 27.0136 0.314448 27.6684C0.821919 28.3232 1.76413 28.4427 2.41893 27.9352C4.13753 26.6033 6.147 25.5538 8.31216 24.5772C9.31028 24.127 10.3243 23.6996 11.3531 23.2661L11.6112 23.1573C12.7212 22.6893 13.8462 22.2121 14.9412 21.7048C17.3853 20.5726 19.8032 19.3839 22.2036 18.204C22.7577 17.9316 23.3108 17.6597 23.8631 17.389C23.8566 17.3922 23.875 17.3866 24.1059 17.2962C24.2589 17.2362 24.5072 17.1368 24.7311 17.014C24.8387 16.955 25.0095 16.8541 25.1743 16.7062C25.2885 16.6037 25.6965 16.2227 25.7368 15.5759C25.7872 14.7673 25.255 14.295 24.9836 14.1204C24.7196 13.9507 24.4447 13.8738 24.2728 13.8335C20.7925 13.0176 17.2055 12.4182 13.6758 11.8284C12.0745 11.5608 10.4848 11.2952 8.92233 11.0122C11.2046 9.94582 13.418 8.77441 15.5941 7.60817C15.8648 7.46307 16.1349 7.3181 16.4045 7.1734C19.2463 5.64798 22.0308 4.15332 24.9151 2.87103ZM31.1859 10.4641C31.3525 9.65255 30.8297 8.85967 30.0181 8.69311C29.2066 8.52656 28.4137 9.0494 28.2472 9.86091C27.455 13.7208 26.9481 17.6915 26.4498 21.5959C26.1646 23.8298 25.8822 26.0421 25.5508 28.1994C25.3243 29.6732 25.0443 31.1434 24.7229 32.6076L24.6999 32.7127C24.6159 33.0965 24.5889 33.2199 24.5282 33.3412C24.1577 34.0822 24.4581 34.9832 25.199 35.3536C25.94 35.7241 26.841 35.4238 27.2115 34.6828C27.4544 34.197 27.5636 33.6762 27.6292 33.3637C27.6379 33.3222 27.6458 33.2844 27.6532 33.2508C27.9864 31.7326 28.2787 30.1993 28.516 28.655C28.7039 27.4319 28.8733 26.2206 29.0335 25.0182L29.6369 25.0407C31.6161 25.1149 33.6186 25.19 35.6419 25.1802L35.4644 26.2647C35.1494 28.1888 34.8349 30.1105 34.5155 32.0272C34.364 32.9361 34.2027 33.8562 34.04 34.7843L34.0397 34.7862C33.5476 37.5938 33.0424 40.4758 32.7549 43.3512C32.6724 44.1755 33.2738 44.9106 34.0982 44.993C34.9225 45.0754 35.6575 44.474 35.74 43.6497C36.0155 40.8947 36.493 38.1694 36.98 35.3906L36.9803 35.3889L36.9806 35.3868C37.1468 34.4387 37.314 33.4843 37.4746 32.5204C37.7958 30.5936 38.1107 28.6694 38.4253 26.7475L38.4271 26.7367L38.429 26.7249L38.4298 26.7201L38.6966 25.0909C38.8591 25.0816 39.0218 25.0716 39.1847 25.0606L39.4741 25.0414C39.9659 25.0088 40.6892 24.9608 41.2575 24.918C41.5924 24.8928 41.9149 24.8664 42.0989 24.8439C42.1374 24.8392 42.2209 24.8288 42.307 24.8105C42.3321 24.8052 42.3736 24.7958 42.4234 24.7814C42.4574 24.7716 42.5693 24.7389 42.7002 24.6713C42.7627 24.639 42.8996 24.5638 43.0427 24.4289C43.1733 24.3058 43.4637 23.986 43.5089 23.4662C43.5592 22.8885 43.2772 22.4765 43.0737 22.2734C42.8896 22.0897 42.7032 22 42.6269 21.9658C42.4652 21.8932 42.3268 21.8666 42.2905 21.8596L42.2893 21.8594C42.2323 21.8485 42.1852 21.8427 42.158 21.8398C42.1026 21.8337 42.0541 21.8312 42.0248 21.8299C41.9624 21.8272 41.8941 21.8265 41.8293 21.8265C41.6663 21.8265 41.5093 21.8526 41.3623 21.9007C41.2662 21.9085 41.1555 21.9172 41.0322 21.9265C40.4801 21.9681 39.7773 22.0147 39.2847 22.0474L39.2829 22.0475L39.1967 22.0532C39.8299 18.2298 40.4801 14.4155 41.1927 10.6094C41.3451 9.79513 40.8086 9.01144 39.9943 8.859C39.18 8.70655 38.3963 9.24308 38.2439 10.0574C37.4894 14.0874 36.8032 18.134 36.1356 22.1761C34.0285 22.2024 31.9182 22.1236 29.7492 22.0427L29.4202 22.0304L29.4509 21.7887C29.9355 17.9799 30.4117 14.2362 31.1859 10.4641ZM12.9713 27.7197C12.5806 27.1855 12.1849 26.6612 11.7738 26.1474C11.6933 26.0467 11.5656 25.8693 11.4797 25.6255C11.3888 25.3676 11.3152 24.9392 11.5159 24.475C11.7132 24.0189 12.0641 23.7864 12.2858 23.6811C12.5009 23.579 12.6947 23.5456 12.7984 23.532C13.0065 23.5047 13.1943 23.5174 13.2647 23.5223C13.3057 23.5252 13.345 23.5286 13.3672 23.5306L13.3737 23.5312L13.3898 23.5326C13.709 23.5472 14.058 23.5555 14.425 23.5642C15.3088 23.5851 16.2967 23.6085 17.2228 23.7294L17.2848 23.7336C17.3509 23.7381 17.4612 23.7466 17.5816 23.7643C17.6782 23.7786 17.8929 23.8135 18.1193 23.9103C18.2318 23.9584 18.4422 24.0609 18.6431 24.2616C18.8677 24.4861 19.1029 24.8632 19.1029 25.3667C19.1029 26.1712 18.6055 26.6913 18.4191 26.874C18.3009 26.9898 18.183 27.0864 18.1129 27.1434L18.0755 27.1739C18.0558 27.1899 18.0412 27.2017 18.0255 27.2147C18.0117 27.2262 18.0053 27.2317 18.004 27.2329C17.6646 27.5493 17.3226 27.8622 16.9795 28.1721C17.0571 28.2818 17.1345 28.3909 17.2116 28.4995C18.2024 29.8941 19.1742 31.2176 20.2635 32.428C20.8177 33.0438 20.7678 33.9922 20.152 34.5464C19.5363 35.1006 18.5878 35.0507 18.0336 34.4349C16.8205 33.0869 15.7644 31.6422 14.766 30.237L14.7221 30.1752C14.1046 30.7187 13.4936 31.2571 12.8906 31.7997C13.4879 31.9513 14.1154 32.119 14.738 32.3265C15.5239 32.5885 15.9487 33.438 15.6867 34.2239C15.4247 35.0098 14.5752 35.4346 13.7893 35.1726C13.1554 34.9613 12.496 34.7929 11.7785 34.6133L11.6584 34.5833C10.9915 34.4165 10.2721 34.2367 9.56182 34.011C9.46783 33.9812 9.37884 33.9429 9.29541 33.8974C8.60013 33.5863 8.24076 32.7924 8.48672 32.0545C8.5472 31.873 8.65219 31.6461 8.85137 31.4295C8.93084 31.343 9.00406 31.2819 9.03722 31.2547C9.05355 31.2413 9.06886 31.2292 9.07591 31.2236L9.07686 31.2228L9.09113 31.2115C9.28906 31.0516 9.44715 30.9001 9.64469 30.7107C9.76007 30.6001 9.88891 30.4766 10.047 30.331C10.976 29.4755 11.9231 28.6421 12.8553 27.8219L12.9713 27.7197Z" fill="black"/>
</svg>
