<svg width="32" height="32" viewBox="0 0 32 32" fill="none" xmlns="http://www.w3.org/2000/svg">
<circle cx="16" cy="16" r="16" fill="#7B1D50"/>
<path d="M16 32C20.2435 32 24.3131 30.3143 27.3137 27.3137C30.3143 24.3131 32 20.2435 32 16C32 11.7565 30.3143 7.68688 27.3137 4.68629C24.3131 1.68571 20.2435 8.26233e-07 16 0L16 16L16 32Z" fill="#FFAF37"/>
<mask id="mask0_4473_5759" style="mask-type:alpha" maskUnits="userSpaceOnUse" x="0" y="0" width="32" height="32">
<circle cx="16" cy="16" r="16" fill="#710000"/>
</mask>
<g mask="url(#mask0_4473_5759)">
<path d="M28.4326 9.18758C22.6408 6.64621 17.76 8.76099 16 10.1858V26C18.3975 24.1602 24.3198 24.3357 27.8482 24.7436C28.4565 24.8139 29 24.3454 29 23.733V10.0753C29 9.69285 28.7829 9.34127 28.4326 9.18758Z" fill="#7B1D50"/>
<path d="M3.56737 9.18758C9.35918 6.64621 14.24 8.76099 16 10.1858V26C13.6025 24.1602 7.68017 24.3357 4.15181 24.7436C3.5435 24.8139 3 24.3454 3 23.733V10.0753C3 9.69285 3.21713 9.34127 3.56737 9.18758Z" fill="#FFAF37"/>
</g>
</svg>
