<svg width="32" height="32" viewBox="0 0 32 32" fill="none" xmlns="http://www.w3.org/2000/svg">
<circle cx="16" cy="16" r="16" fill="#710000"/>
<mask id="mask0_4206_5378" style="mask-type:alpha" maskUnits="userSpaceOnUse" x="0" y="0" width="32" height="32">
<circle cx="16" cy="16" r="16" fill="#CBCBCB"/>
</mask>
<g mask="url(#mask0_4206_5378)">
<path d="M31.9554 3.95007C31.6845 3.18867 30.6586 3.03255 30.1348 3.64801C24.65 10.0934 11.3864 19.3027 -7.14107 15.0792C-7.98913 14.8858 -8.71282 15.7698 -8.32019 16.5459L-4.14326 24.803C-3.99549 25.0951 -3.70787 25.2978 -3.38334 25.3407C18.5449 28.241 31.0086 18.7063 34.8252 13.1724C35.0002 12.9187 35.0322 12.5995 34.9289 12.3092L31.9554 3.95007Z" fill="#DFBA5B"/>
<path d="M7.46328 -5.88652C7.73738 -6.02732 8.06042 -6.03664 8.33499 -5.89675C11.7852 -4.13908 16.929 0.284962 20.6769 7.94542C20.8988 8.39885 20.7358 8.9452 20.3008 9.2013C17.9088 10.6096 15.1515 11.861 12.0596 12.7526C11.6181 12.8799 11.1516 12.6774 10.9222 12.2792C7.53441 6.39951 3.05859 2.2968 -0.483753 0.0141245C-1.16306 -0.423623 -1.14744 -1.46321 -0.42861 -1.83247L7.46328 -5.88652Z" fill="#DFBA5B"/>
<path d="M25.2057 24.8584C25.1437 24.1714 24.4112 23.7692 23.7807 24.049C21.624 25.0059 19.2193 25.844 16.5648 26.4901C16.0662 26.6114 15.7319 27.0826 15.7805 27.5934C16.0156 30.0617 16.0319 32.6808 15.7781 35.4496C15.6987 36.3158 16.671 36.913 17.3883 36.4211L25.0197 31.1878C25.2897 31.0026 25.4525 30.697 25.4521 30.3697C25.4498 28.4502 25.3642 26.6137 25.2057 24.8584Z" fill="#DFBA5B"/>
</g>
</svg>
