<svg width="32" height="32" viewBox="0 0 32 32" fill="none" xmlns="http://www.w3.org/2000/svg">
<circle cx="16" cy="16" r="16" fill="#004877"/>
<mask id="mask0_4485_5759" style="mask-type:alpha" maskUnits="userSpaceOnUse" x="0" y="0" width="32" height="32">
<circle cx="16" cy="16" r="16" fill="#004877"/>
</mask>
<g mask="url(#mask0_4485_5759)">
<path d="M4.47867 10.1647C4.33573 9.63119 4.65231 9.08285 5.18577 8.93991L11.6156 7.21705C12.1491 7.0741 12.6974 7.39069 12.8403 7.92415L14.5632 14.354C14.7061 14.8874 14.3896 15.4358 13.8561 15.5787L7.42628 17.3016C6.89281 17.4445 6.34447 17.1279 6.20153 16.5945L4.47867 10.1647Z" fill="#ED3340"/>
<path d="M-5.74118 12.9029C-5.88412 12.3695 -5.56754 11.8211 -5.03407 11.6782L1.39574 9.95533C1.92921 9.81239 2.47755 10.129 2.62049 10.6624L4.34335 17.0923C4.4863 17.6257 4.16971 18.1741 3.63625 18.317L-2.79357 20.0399C-3.32704 20.1828 -3.87537 19.8662 -4.01832 19.3328L-5.74118 12.9029Z" fill="#F3EAD8"/>
<path d="M7.21701 20.3844C7.07407 19.8509 7.39065 19.3026 7.92412 19.1596L14.3539 17.4368C14.8874 17.2938 15.4357 17.6104 15.5787 18.1439L17.3015 24.5737C17.4445 25.1072 17.1279 25.6555 16.5944 25.7984L10.1646 27.5213C9.63115 27.6643 9.08282 27.3477 8.93987 26.8142L7.21701 20.3844Z" fill="#F3EAD8"/>
<path d="M-3.00284 23.1232C-3.14578 22.5897 -2.8292 22.0413 -2.29573 21.8984L4.13409 20.1755C4.66755 20.0326 5.21589 20.3492 5.35883 20.8826L7.0817 27.3125C7.22464 27.8459 6.90806 28.3943 6.37459 28.5372L-0.0552297 30.2601C-0.588696 30.403 -1.13703 30.0864 -1.27997 29.553L-3.00284 23.1232Z" fill="#F3EAD8"/>
<path d="M17.4368 17.6461C17.2939 17.1126 17.6104 16.5643 18.1439 16.4214L24.5737 14.6985C25.1072 14.5556 25.6555 14.8721 25.7985 15.4056L27.5213 21.8354C27.6643 22.3689 27.3477 22.9172 26.8142 23.0602L20.3844 24.783C19.8509 24.926 19.3026 24.6094 19.1597 24.0759L17.4368 17.6461Z" fill="#ED3340"/>
<path d="M27.6566 14.9073C27.5137 14.3739 27.8303 13.8255 28.3638 13.6826L34.7936 11.9597C35.327 11.8168 35.8754 12.1334 36.0183 12.6668L37.7412 19.0966C37.8841 19.6301 37.5675 20.1785 37.0341 20.3214L30.6043 22.0443C30.0708 22.1872 29.5225 21.8706 29.3795 21.3372L27.6566 14.9073Z" fill="#F3EAD8"/>
<path d="M14.6985 7.42637C14.5555 6.89291 14.8721 6.34457 15.4056 6.20163L21.8354 4.47877C22.3688 4.33582 22.9172 4.65241 23.0601 5.18587L24.783 11.6157C24.9259 12.1492 24.6093 12.6975 24.0759 12.8404L17.6461 14.5633C17.1126 14.7062 16.5643 14.3897 16.4213 13.8562L14.6985 7.42637Z" fill="#ED3340"/>
<path d="M24.9183 4.6876C24.7754 4.15414 25.0919 3.6058 25.6254 3.46286L32.0552 1.74C32.5887 1.59705 33.137 1.91364 33.28 2.4471L35.0028 8.87692C35.1458 9.41039 34.8292 9.95872 34.2957 10.1017L27.8659 11.8245C27.3324 11.9675 26.7841 11.6509 26.6412 11.1174L24.9183 4.6876Z" fill="#F3EAD8"/>
</g>
</svg>
